<svg width="243" height="264" viewBox="0 0 243 264" fill="none" xmlns="http://www.w3.org/2000/svg">
<path d="M96.4189 264C96.4189 264 99.0947 249.411 96.4189 223.011C93.7431 196.611 60.952 200.084 47.0434 194.526C33.1348 188.968 13.6629 171.6 1.84046 168.126C-9.98196 164.653 38.6982 149.058 47.0434 147.979C55.3885 146.9 81.1194 163.958 81.1194 163.958L97.8097 207.032L100.591 173.684C100.591 173.684 93.6372 157.011 81.1194 123.663C68.6017 90.3158 92.9872 93.6 100.591 74.3368C100.591 74.3368 114.368 101.403 114.307 116.021C114.307 116.021 131.19 96.5684 135.363 93.7895C139.535 91.0105 137.449 74.3368 143.708 74.3368C149.967 74.3368 151.358 75.7263 151.358 75.7263C151.358 75.7263 156.226 80.5895 145.794 93.7895C145.794 93.7895 128.409 106.989 114.307 116.021C114.293 119.392 113.543 122.101 111.718 123.663C101.982 132 100.591 134.779 100.591 134.779C100.591 134.779 100.591 151.453 103.373 166.737C106.155 182.021 113.805 134.779 128.409 123.663C143.013 112.547 142.317 108.379 159.008 97.2632C175.698 86.1474 178.48 56.9684 179.87 49.3263C181.261 41.6842 179.87 29.1789 177.784 25.0105C175.698 20.8421 193.779 0 193.779 0C196.223 9.76722 202.82 22.9263 200.038 25.0105C197.256 27.0947 195.17 31.2632 195.17 31.2632C195.17 31.2632 211.86 29.4345 210.469 29.8737C209.078 30.3129 210.469 37.5158 202.82 41.6842C195.17 45.8526 186.825 45.8526 186.825 45.8526L184.738 54.1895L188.911 49.3263L183.348 64.6105L177.784 82.6737L166.657 98.6526L145.794 116.021L195.17 106.989L210.469 84.7579C210.469 84.7579 222.987 73.6421 226.464 75.7263C229.941 77.8105 240.373 75.7263 233.419 78.5053C226.464 81.2842 224.378 93.7895 211.86 102.821C211.86 102.821 211.86 112.547 222.987 114.632C234.114 116.716 234.114 113.242 233.419 104.905C232.723 96.5684 235.505 100.042 235.505 100.042C235.505 100.042 236.896 98.6526 241.068 104.905C245.241 111.158 236.2 116.021 233.419 119.495C230.637 122.968 210.469 119.495 210.469 119.495C210.469 119.495 205.601 110.463 190.302 112.547C175.002 114.632 161.094 117.411 151.358 119.495C141.622 121.579 139.999 119.495 130.495 130.611C120.991 141.726 117.282 152.842 111.718 169.516C106.155 186.189 106.85 196.611 106.85 196.611C106.85 196.611 101.982 221.621 106.85 224.4C111.718 227.179 118.673 193.832 118.673 193.832C118.673 193.832 119.368 177.853 126.322 165.347C133.277 152.842 138.84 142.421 153.444 138.253C168.048 134.084 177.089 138.253 177.089 138.253L165.266 152.842L145.794 185.495C136.561 195.262 126.322 196.611 122.15 210.505C117.977 224.4 111.718 235.516 111.718 235.516L108.241 254.274L126.322 245.937C126.322 245.937 140.231 216.758 147.881 200.084C155.53 183.411 173.612 159.095 173.612 159.095C173.612 159.095 185.434 152.842 197.256 152.842C209.078 152.842 213.251 155.621 220.205 161.179C227.16 166.737 229.246 155.621 229.246 155.621C229.246 155.621 233.419 154.232 233.419 157.705C233.419 161.179 223.682 161.874 226.464 166.737C229.246 171.6 233.419 181.326 229.246 191.747C227.918 195.065 227.153 196.904 226.728 197.87C231.526 195.521 236.25 194.476 238.982 191.747C241.764 188.968 245.241 188.968 241.068 194.526C236.896 200.084 238.982 202.168 226.464 204.253C213.946 206.337 205.601 209.811 197.256 208.421C188.911 207.032 183.348 201.474 183.348 194.526C183.348 187.579 184.043 182.716 186.129 178.547C188.216 174.379 198.647 172.295 202.82 174.379C206.992 176.463 210.469 179.937 209.078 185.495C207.688 191.053 204.21 189.663 204.21 185.495C204.21 181.326 202.82 178.547 195.17 178.547C187.52 178.547 188.216 188.968 188.216 191.747C188.216 194.526 190.997 200.084 202.82 200.084C214.642 200.084 220.205 195.916 222.292 189.663C224.378 183.411 222.292 178.547 222.292 172.989C222.292 167.432 211.165 160.221 197.256 157.705C183.348 155.19 179.87 163.958 173.612 169.516C167.353 175.074 155.53 200.084 155.53 200.084C155.53 200.084 146.49 223.011 143.708 229.263C140.926 235.516 128.061 245.937 137.449 245.937C146.837 245.937 161.789 235.516 177.089 227.179C192.388 218.842 188.216 222.316 199.342 220.926C210.469 219.537 215.873 232.359 226.464 239.684C226.464 239.684 206.992 248.021 200.733 241.768C194.474 235.516 183.348 234.126 183.348 234.126C183.348 234.126 162.485 247.326 145.794 250.8C136.241 252.788 118.673 259.137 118.673 259.137V264H96.4189Z" fill="url(#paint0_linear_962_1632)"/>
<defs>
<linearGradient id="paint0_linear_962_1632" x1="243.4" y1="-10.421" x2="32.2543" y2="264.203" gradientUnits="userSpaceOnUse">
<stop offset="0.225962" stop-color="#568525"/>
<stop offset="0.533654" stop-color="#08976A"/>
<stop offset="0.783654" stop-color="#145A3B"/>
</linearGradient>
</defs>
</svg>
