<svg width="230" height="260" viewBox="0 0 230 260" fill="none" xmlns="http://www.w3.org/2000/svg">
<path d="M172.353 243.334C181.446 253.81 190.06 260 190.06 260H202.982L196.282 250C196.282 250 201.291 250.56 204.417 250C213.415 248.388 217.337 242.512 222.125 234.762C226.494 227.69 227.868 214.286 227.868 214.286C227.868 214.286 220.175 213.27 215.425 214.286C209.212 215.614 201.067 221.905 201.067 221.905C201.067 221.905 190.06 243.334 187.189 243.334C184.317 243.333 176.182 234.762 176.182 234.762L178.096 205.239C178.096 205.239 182.771 196.2 187.189 197.62C190.545 198.698 189.31 202.941 191.975 205.239C197.358 209.881 204.417 206.667 210.16 206.667C215.903 206.667 226.341 196.707 229.303 186.191C231.478 178.473 227.868 165.715 227.868 165.715C227.868 165.715 209.369 160.566 199.632 165.715C193.564 168.924 190.383 172.042 187.189 178.096C184.343 183.489 188.068 188.929 183.839 193.334C181.469 195.802 176.182 197.62 176.182 197.62C176.182 197.62 174.202 182.897 176.182 173.81C177.535 167.599 179.236 164.337 181.925 158.572C189.068 143.256 207.767 123.811 207.767 123.811L224.518 96.1919C224.518 96.1919 230.371 73.6345 229.303 59.0494C228.466 47.6222 227.709 40.7479 222.603 30.4782C218.692 22.6104 216.953 17.4603 209.203 12.3832C201.855 7.56928 187.189 6.19269 187.189 6.19269C187.189 6.19269 181.988 6.54998 179.532 4.76413C177.69 3.42502 178.461 -0.102059 176.182 0.00226536C173.642 0.118512 174.267 6.19269 174.267 6.19269C174.267 6.19269 181.446 9.04981 178.574 10.9546C171.485 15.6574 169.482 23.3354 169.482 23.3354C169.482 23.3354 168.593 32.7491 172.832 37.1448C176.76 41.2194 180.153 43.7738 185.753 42.859C189.465 42.2527 191.891 41.3898 194.367 38.5734C197.293 35.2468 198.675 33.3353 197.239 27.6211C195.803 21.9068 187.189 20.9545 187.189 20.9545C187.189 20.9545 181.446 24.7638 182.403 27.6211C183.36 30.4783 185.753 30.4782 185.753 30.4782C185.753 30.4782 184.796 22.383 187.189 23.3354C189.582 24.2878 195.605 28.6968 194.367 33.3353C193.145 37.9177 188.071 39.2846 183.36 38.5734C177.41 37.675 174.84 32.1538 174.267 26.1925C173.606 19.3032 177.96 12.2299 184.796 10.9546C192.453 9.52605 198.675 8.09755 206.81 15.7165C214.946 23.3354 217.444 28.5157 221.168 40.0019C224.729 50.9877 222.603 69.5255 222.603 69.5255C222.603 69.5255 215.903 64.7636 209.203 64.2874C202.503 63.8112 197.239 69.5255 197.239 69.5255C197.239 69.5255 193.601 75.3666 194.367 79.0492C195.495 84.4632 202.982 88.0967 202.982 88.0967C202.982 88.0967 206.81 87.6206 209.203 85.7158C211.596 83.8111 215.45 79.3949 213.032 76.1921C211.676 74.3955 209.682 72.8588 207.767 73.8111C205.853 74.7635 210.694 82.893 206.81 84.2872C202.825 85.7181 199.843 80.4029 199.632 76.1921C199.374 71.0685 204.129 68.0539 209.203 67.1445C215.135 66.0815 220.689 68.0969 222.603 74.7635C224.518 81.4301 215.903 103.335 215.903 103.335L199.632 126.668C199.632 126.668 198.675 114.763 197.239 113.335C195.803 111.906 189.103 109.525 189.103 109.525C189.103 109.525 187.189 105.239 185.753 99.049C184.317 92.8586 174.267 91.43 166.132 91.43C157.996 91.43 147.467 93.811 147.467 93.811L159.91 111.906C159.91 111.906 170.439 121.906 176.182 120.954C181.925 120.001 181.731 114.678 187.189 114.763C190.95 114.822 193.509 114.655 195.803 117.62C198.448 121.038 197.239 128.573 197.239 128.573C197.239 128.573 175.224 148.096 169.003 165.715C162.782 183.334 168.046 193.81 168.046 193.81L159.91 193.334C159.91 193.334 155.603 180.001 147.467 178.096C139.331 176.191 130.717 173.81 127.846 171.429C124.974 169.048 128.803 183.81 126.41 187.143C124.017 190.477 117.796 186.191 119.71 189.524C121.624 192.858 137.896 205.239 141.246 205.239C144.596 205.239 149.76 201.361 155.603 200.477C160.776 199.693 165.174 197.62 169.003 200.477C172.832 203.334 170.917 213.334 170.917 216.191C170.917 219.048 167.089 229.524 164.217 229.048C161.346 228.572 158.953 216.191 155.603 214.286C152.253 212.381 148.903 212.381 146.032 214.286C143.16 216.191 150.339 226.191 147.467 227.619C144.596 229.048 127.846 220.953 122.581 211.429C117.317 201.905 114.875 192.858 114.446 175.239C114.016 157.62 127.12 150.257 127.846 148.096C128.571 145.936 145.777 136.756 155.603 148.096C159.264 152.321 159.378 158.257 155.603 162.382C152.937 165.296 153.689 166.667 146.032 166.667C138.374 166.667 140.289 158.572 140.767 155.715C141.246 152.858 150.339 155.715 150.339 155.715C150.339 155.715 149.23 151.753 147.467 150.477C143.074 147.297 136.447 153.249 135.503 158.572C134.371 164.95 139.617 170.33 146.032 171.429C152.132 172.474 156.711 169.083 159.91 163.81C164.248 156.66 161.403 148.895 155.603 142.858C147.725 134.659 126.41 142.858 126.41 142.858C126.41 142.858 112.053 155.715 112.053 163.81C112.053 171.906 78.0742 117.125 84.2955 119.049L84.624 119.15C91.0872 121.149 107.39 126.192 114.446 126.192C121.624 126.192 124.654 129.094 131.196 130.954C129.281 125.239 127.846 120.001 129.281 113.335C130.717 106.668 136.939 100.478 129.281 88.0967C121.624 75.7159 103.917 75.7159 95.7813 82.8587C87.6455 90.0015 74.2455 96.6681 78.5526 112.382C82.8598 128.096 68.9813 96.6681 69.4597 90.0015C69.9382 83.3349 75.6812 60.9541 80.4669 60.0017C85.2527 59.0494 100.088 65.0717 107.267 63.8112C114.446 62.5507 124.496 57.1446 125.931 51.9066C127.367 46.6685 152.731 40.4781 145.553 40.4781C138.374 40.4781 125.322 27.5223 112.053 19.5259C112.053 19.5259 94.8243 12.8593 82.3813 26.6687C69.9383 40.4781 78.5527 54.2875 78.5527 54.2875C78.5527 54.2875 64.1957 64.0428 65.6313 81.9063C67.0669 99.7699 56.0597 80.4778 54.1454 64.2874C52.2311 48.0971 30.6953 40.9543 30.6953 40.9543C30.6953 40.9543 8.68086 44.2876 1.98102 62.8589C-4.71882 81.4301 7.72387 83.3349 7.72377 96.6443C7.72367 109.954 4.8523 96.6443 27.8238 96.6443C50.7953 96.6443 43.6169 79.0492 53.1883 83.3349C62.7598 87.6205 60.0244 91.2752 65.6313 96.6681L82.3813 132.858C82.3813 132.858 58.5849 128.293 49.3597 135.487C40.1346 142.681 40.4483 156.338 45.0526 167.391C49.6569 178.445 57.6401 179.266 67.5456 186.729C67.5456 186.729 66.5884 193.81 69.9384 194.762C73.2884 195.715 71.8527 186.729 73.767 186.729C75.6813 186.729 89.1179 176.449 90.0385 170.001C91.2623 161.429 78.5527 140.001 75.6813 140.001C72.8099 140.001 82.3813 135.715 86.2099 140.001C90.0385 144.287 106.403 161.906 108.703 170.001C111.002 178.096 104.396 193.81 119.71 216.191C135.024 238.572 163.26 232.857 172.353 243.334Z" fill="url(#paint0_linear_962_1631)"/>
<defs>
<linearGradient id="paint0_linear_962_1631" x1="52.6431" y1="9.99991" x2="198.95" y2="260.636" gradientUnits="userSpaceOnUse">
<stop offset="0.0913462" stop-color="#08976A"/>
<stop offset="0.783654" stop-color="#568525"/>
<stop offset="1" stop-color="#145A3B"/>
</linearGradient>
</defs>
</svg>
